#!OML:ASF F:\twosubjects\two\wednesday\Session 1\rory1.ASF
:FULLY-SPECIFIED
:DEGREES
49
root 4.55545 18.7143 19.5762 -173.291 -5.08338 176.241
lowerback 1.22295 -1.15342 -6.83302
upperback 1.4071 -1.62217 0.27398
thorax 0.964116 -0.897939 4.11735
lowerneck -14.295 -3.49035 -2.67604
upperneck 12.283 -4.67867 2.99345
head 6.20609 -2.17307 0.940768
rclavicle 5.98839e-015 9.24349e-015
rhumerus -28.1752 28.5352 -69.2126
rradius 73.4853
rwrist 9.38917
rhand -8.70806 40.6215
rfingers 7.12502
rthumb 17.2274 11.3651
lclavicle 5.98839e-015 9.24349e-015
lhumerus -17.6223 -19.304 92.949
lradius 46.9185
lwrist 3.81257
lhand -27.4597 17.4401
lfingers 7.12502
lthumb -0.864042 47.4181
rfemur -27.3638 11.9733 12.165
rtibia 22.9064
rfoot -1.04188 -10.4376
rtoes 8.41303
lfemur 7.85077 -0.862247 -26.005
ltibia 24.4502
lfoot -2.64107 -1.64707
ltoes -26.9449
50
root 4.57109 18.7145 19.3932 -173.287 -4.92767 176.542
lowerback 1.19145 -1.04061 -6.46217
upperback 1.26532 -1.46563 0.275448
thorax 0.805799 -0.804712 3.91234
lowerneck -14.2894 -3.51213 -2.23915
upperneck 12.2825 -4.74728 2.66188
head 6.18787 -2.21256 0.758561
rclavicle 8.22472e-015 -5.06901e-015
rhumerus -28.6341 28.0748 -69.5185
rradius 73.5971
rwrist 9.14838
rhand -6.5107 40.7366
rfingers 7.12502
rthumb 19.3414 11.6785
lclavicle 8.22472e-015 -5.06901e-015
lhumerus -18.7967 -18.4463 92.9413
lradius 46.0269
lwrist 3.19099
lhand -26.9602 17.2078
lfingers 7.12502
lthumb -0.381635 47.1872
rfemur -27.028 11.4425 12.9554
rtibia 23.4336
rfoot -1.0886 -9.85688
rtoes 9.25566
lfemur 6.79503 -0.410975 -25.444
ltibia 26.9766
lfoot -1.06844 -1.36574
ltoes -25.4138
51
root 4.58486 18.7111 19.2139 -173.308 -4.73158 177.09
lowerback 1.04555 -1.01025 -5.95531
upperback 1.21232 -1.4065 0.496007
thorax 0.818643 -0.767663 3.85358
lowerneck -14.2621 -3.45417 -2.14649
upperneck 12.096 -4.63625 2.40002
head 6.11228 -2.17432 0.673543
rclavicle 1.26228e-014 -5.96354e-015
rhumerus -28.7153 28.0394 -69.5491
rradius 73.6572
rwrist 9.08509
rhand -3.74262 41.2518
rfingers 7.12502
rthumb 22.0011 12.4831
lclavicle 1.26228e-014 -5.96354e-015
lhumerus -19.833 -16.9521 92.8814
lradius 45.2173
lwrist 3.0584
lhand -26.1005 16.6104
lfingers 7.12502
lthumb 0.448689 46.5897
rfemur -26.7635 11.1651 13.9316
rtibia 24.0887
rfoot -1.5112 -9.29494
rtoes 8.953
lfemur 5.80271 0.0122723 -24.6223
ltibia 29.4169
lfoot 0.812281 -0.838977
ltoes -21.388
52
root 4.59718 18.7097 19.0358 -173.512 -4.66782 177.486
lowerback 1.13217 -0.990549 -5.55511
upperback 1.19462 -1.38157 0.66248
thorax 0.742902 -0.748812 3.80283
lowerneck -14.051 -3.4082 -2.20478
upperneck 11.7382 -4.54337 2.35365
head 5.96126 -2.13728 0.683563
rclavicle -4.57205e-015 -2.06736e-014
rhumerus -28.8584 28.0039 -69.6086
rradius 73.659
rwrist 9.13068
rhand -3.67101 40.624
rfingers 7.12502
rthumb 22.0699 11.8634
lclavicle -4.57205e-015 -2.06736e-014
lhumerus -20.8629 -15.375 92.8102
lradius 44.3286
lwrist 2.7945
lhand -25.3168 16.494
lfingers 7.12502
lthumb 1.20558 46.4703
rfemur -26.2965 10.8609 14.7567
rtibia 24.7914
rfoot -2.32629 -8.58965
rtoes 8.51968
lfemur 4.96922 0.268897 -23.9659
ltibia 31.7843
lfoot 2.85847 -0.293898
ltoes -18.0759
53
root 4.61629 18.7079 18.8597 -173.726 -4.5806 177.534
lowerback 1.37732 -0.898936 -5.58351
upperback 1.15539 -1.27567 0.694818
thorax 0.55499 -0.689973 3.85752
lowerneck -13.8251 -3.43821 -2.07084
upperneck 11.4042 -4.59254 2.28611
head 5.81408 -2.16301 0.642624
rclavicle -6.31141e-015 3.77691e-015
rhumerus -29.1531 27.8166 -69.6997
rradius 73.7094
rwrist 8.89102
rhand -6.40811 38.3974
rfingers 7.12502
rthumb 19.44 9.3492
lclavicle -6.31141e-015 3.77691e-015
lhumerus -21.9345 -14.2972 92.6984
lradius 43.3308
lwrist 2.49823
lhand -25.1405 17.3458
lfingers 7.12502
lthumb 1.37583 47.3211
rfemur -25.7657 10.4063 15.257
rtibia 25.403
rfoot -2.69132 -7.83644
rtoes 9.01669
lfemur 4.04313 0.644289 -23.6239
ltibia 34.1258
lfoot 5.60094 0.14477
ltoes -16.458
54
root 4.63912 18.7041 18.6872 -173.907 -4.36248 177.783
lowerback 1.52893 -0.747693 -5.50417
upperback 1.11655 -1.08231 0.770117
thorax 0.408854 -0.587533 3.89291
lowerneck -13.4566 -3.42244 -1.78887
upperneck 10.918 -4.60017 2.17607
head 5.59015 -2.16773 0.572429
rclavicle 7.23079e-015 1.8487e-014
rhumerus -29.5526 27.4864 -69.8083
rradius 73.8624
rwrist 8.84805
rhand -4.58898 40.7395
rfingers 7.12502
rthumb 21.1883 11.8774
lclavicle 7.23079e-015 1.8487e-014
lhumerus -23.0512 -13.3142 92.48
lradius 42.3563
lwrist 2.57254
lhand -25.4306 17.7353
lfingers 7.12502
lthumb 1.0957 47.7123
rfemur -25.2879 10.1205 15.9335
rtibia 25.9354
rfoot -3.31388 -7.0321
rtoes 10.7341
lfemur 2.85687 1.10046 -23.121
ltibia 36.4842
lfoot 8.79839 0.142183
ltoes -18.2143
55
root 4.65486 18.7007 18.5226 -174.036 -4.33858 178.026
lowerback 1.68614 -0.726924 -5.27411
upperback 1.13966 -1.06124 0.829123
thorax 0.338685 -0.574716 3.82652
lowerneck -13.5104 -3.33335 -1.65109
upperneck 10.5796 -4.49417 2.19831
head 5.4881 -2.10847 0.568912
rclavicle 2.95692e-015 1.98785e-015
rhumerus -29.7256 27.2596 -69.8958
rradius 74.0356
rwrist 8.9575
rhand -3.99428 40.9614
rfingers 7.12502
rthumb 21.7595 12.1645
lclavicle 2.95692e-015 1.98785e-015
lhumerus -23.969 -11.8036 92.0445
lradius 41.3495
lwrist 2.46587
lhand -25.672 17.6739
lfingers 7.12502
lthumb 0.862538 47.6519
rfemur -24.8539 9.85839 16.5073
rtibia 26.4441
rfoot -3.91066 -6.46578
rtoes 12.6946
lfemur 1.4424 1.28306 -22.7237
ltibia 38.8855
lfoot 11.5747 -0.612544
ltoes -22.9918
56
root 4.66555 18.7019 18.3565 -174.172 -4.49528 178.084
lowerback 1.88329 -0.806589 -5.14036
upperback 1.2305 -1.17823 0.866992
thorax 0.331811 -0.635903 3.79397
lowerneck -13.9833 -3.24651 -1.64808
upperneck 10.5654 -4.36492 2.19491
head 5.55946 -2.03965 0.571757
rclavicle -8.69683e-016 -1.33186e-014
rhumerus -29.6251 27.2369 -69.8506
rradius 74.0076
rwrist 9.2224
rhand -4.65684 40.6009
rfingers 7.12502
rthumb 21.1231 11.7316
lclavicle -8.69683e-016 -1.33186e-014
lhumerus -24.5927 -10.0297 91.4807
lradius 40.1403
lwrist 2.37358
lhand -25.2872 17.6753
lfingers 7.12502
lthumb 1.23423 47.6515
rfemur -24.2968 9.56859 16.8473
rtibia 26.8622
rfoot -4.31424 -6.18931
rtoes 13.2022
lfemur 0.0771635 1.17383 -22.5322
ltibia 41.3411
lfoot 13.7339 -0.941503
ltoes -24.7709
57
root 4.67877 18.7009 18.1864 -174.385 -4.53737 178.271
lowerback 1.99583 -0.785451 -5.01894
upperback 1.35194 -1.15602 0.97831
thorax 0.39116 -0.630502 3.8412
lowerneck -14.2177 -3.21229 -1.601
upperneck 10.4985 -4.3077 2.10805
head 5.57305 -2.0134 0.539208
rclavicle 2.73329e-016 -4.96962e-015
rhumerus -29.5354 27.2315 -69.7259
rradius 73.5872
rwrist 10.4717
rhand -7.37834 40.6825
rfingers 7.12502
rthumb 18.5069 11.5429
lclavicle 2.73329e-016 -4.96962e-015
lhumerus -25.2504 -8.72069 91.0261
lradius 38.9081
lwrist 2.50231
lhand -25.0079 16.7359
lfingers 7.12502
lthumb 1.50398 46.7103
rfemur -23.5722 9.40638 17.345
rtibia 27.1281
rfoot -4.76673 -5.93139
rtoes 13.7983
lfemur -1.07618 1.00104 -22.1817
ltibia 43.8125
lfoot 15.259 -0.249181
ltoes -22.5703
58
root 4.69588 18.6978 18.0198 -174.572 -4.45426 178.732
lowerback 1.98328 -0.692496 -4.7515
upperback 1.50118 -1.0303 1.19901
thorax 0.537699 -0.575941 3.9157
lowerneck -14.5201 -3.19487 -1.57934
upperneck 10.4673 -4.26866 2.0238
head 5.61006 -1.99621 0.50864
rclavicle 1.71452e-015 2.5842e-015
rhumerus -29.4486 27.2631 -69.58
rradius 72.5241
rwrist 14.1028
rhand -13.5094 40.2784
rfingers 7.12502
rthumb 12.6021 10.6785
lclavicle 1.71452e-015 2.5842e-015
lhumerus -25.9186 -7.57276 90.5868
lradius 37.7489
lwrist 2.21657
lhand -24.7635 16.2862
lfingers 7.12502
lthumb 1.73998 46.2589
rfemur -22.8644 9.2641 18.1766
rtibia 27.285
rfoot -5.27861 -5.63969
rtoes 14.2063
lfemur -2.31945 1.08958 -21.4955
ltibia 46.3185
lfoot 16.1227 -0.0064648
ltoes -21.1214
